<svg width="16" height="9" viewBox="0 0 16 9" fill="none" xmlns="http://www.w3.org/2000/svg">
<path d="M7.88286 8.02741C8.04914 8.00342 8.2037 7.92772 8.32441 7.81091L14.9905 1.4115L14.9905 1.41132C15.1588 1.26921 15.2611 1.06406 15.2732 0.844034C15.2854 0.624188 15.2062 0.408993 15.0546 0.249231C14.9029 0.0894602 14.6919 -0.000746404 14.4717 -3.48161e-06C14.2515 0.000741348 14.0412 0.0924362 13.8907 0.253136L7.77458 6.12784L1.65848 0.253137L1.65829 0.253137C1.50764 0.0924367 1.29746 0.000740007 1.07725 -2.89612e-06C0.856847 -0.000746752 0.646114 0.0894608 0.494352 0.249232C0.342766 0.409003 0.26353 0.624198 0.27562 0.844035C0.287895 1.06407 0.39019 1.26922 0.558517 1.41132L7.22457 7.81073L7.22457 7.81091C7.3996 7.97924 7.64176 8.05903 7.8828 8.02741L7.88286 8.02741Z" fill="#1D3557"/>
</svg>
