<svg width="27" height="25" viewBox="0 0 27 25" fill="none" xmlns="http://www.w3.org/2000/svg">
<path d="M10.8145 6.89846H12.2325H15.6405H19.7795H23.3467C23.9245 6.89846 24.5024 6.91025 25.0801 6.89846H25.1037C24.7234 6.40024 24.3461 5.90204 23.9658 5.40674C23.8862 5.75756 23.8036 6.10543 23.724 6.45626C23.5295 7.29058 23.3379 8.12485 23.1433 8.96208C22.9075 9.97619 22.6716 10.9903 22.4387 12.0074C22.2353 12.8859 22.0319 13.7615 21.8285 14.64C21.7312 15.0645 21.6221 15.4891 21.5337 15.9165C21.5337 15.9224 21.5308 15.9283 21.5308 15.9342C21.9111 15.6453 22.2884 15.3564 22.6687 15.0675H21.2123H17.7277H13.5002H9.85936C9.26972 15.0675 8.67717 15.0557 8.08759 15.0675H8.06106C8.44136 15.3564 8.81872 15.6453 9.19898 15.9342C9.11054 15.436 9.0221 14.9378 8.93661 14.4366C8.72435 13.2368 8.51504 12.0399 8.30276 10.84C8.04629 9.38958 7.79275 7.93915 7.53626 6.48867C7.31515 5.23575 7.09405 3.97988 6.87293 2.72697C6.7668 2.11674 6.68426 1.49761 6.5516 0.893258C6.54865 0.884414 6.54865 0.87557 6.5457 0.866726C6.50737 0.772388 6.4661 0.67805 6.42778 0.583713C6.35408 0.445155 6.25384 0.336074 6.12413 0.253531C5.91777 0.0943375 5.67602 0 5.41072 0H1.70503H1.18028C0.564117 0 -0.0284308 0.542414 0.00105648 1.17922C0.0305373 1.81894 0.519913 2.35844 1.18028 2.35844H4.88597H5.41072C5.03042 2.06953 4.65305 1.78061 4.27279 1.49172C4.36123 1.98994 4.44967 2.48814 4.53517 2.98932C4.74743 4.18918 4.95674 5.38609 5.16901 6.58595C5.42549 8.03638 5.67902 9.48681 5.93552 10.9373C6.15662 12.1902 6.37772 13.4461 6.59885 14.699C6.70498 15.3092 6.78752 15.9283 6.92018 16.5327C6.92313 16.5415 6.92313 16.5504 6.92608 16.5592C6.9644 16.6536 7.00568 16.7479 7.044 16.8422C7.1177 16.9808 7.21794 17.0899 7.34765 17.1724C7.55401 17.3316 7.79575 17.426 8.06106 17.426H9.51741H13.002H17.2295H20.8704C21.46 17.426 22.0526 17.4407 22.6421 17.426H22.6687C23.1698 17.426 23.6887 17.0604 23.8066 16.5592C23.8862 16.2084 23.9688 15.8605 24.0484 15.5097C24.2429 14.6754 24.4345 13.8411 24.6291 13.0039C24.8649 11.9898 25.1008 10.9756 25.3337 9.95857C25.5371 9.08004 25.7405 8.20448 25.9439 7.32595C26.0412 6.90143 26.1473 6.47691 26.2387 6.04943C26.2387 6.04353 26.2416 6.03764 26.2416 6.03174C26.4126 5.29176 25.8967 4.54002 25.1037 4.54002H23.6857H20.2777H16.1387H12.5715C11.9937 4.54002 11.4159 4.53118 10.8381 4.54002H10.8145C10.1983 4.54002 9.6058 5.08244 9.63529 5.71924C9.66477 6.35896 10.1541 6.89846 10.8145 6.89846Z" fill="#1D3557"/>
<path d="M10.8857 21.8302C10.8857 21.9246 10.8768 22.0189 10.865 22.1132C10.8798 22.0101 10.8945 21.9039 10.9063 21.8007C10.8798 21.9717 10.8356 22.1339 10.7707 22.2931C10.809 22.1987 10.8503 22.1044 10.8886 22.0101C10.8208 22.1634 10.7383 22.3078 10.638 22.4405C10.6999 22.3609 10.7619 22.2813 10.8238 22.2017C10.7147 22.3432 10.5879 22.4699 10.4464 22.579C10.526 22.5171 10.6056 22.4552 10.6852 22.3933C10.5496 22.4935 10.4081 22.5761 10.2548 22.6439C10.3491 22.6056 10.4435 22.5643 10.5378 22.526C10.3786 22.5908 10.2165 22.638 10.0455 22.6616C10.1487 22.6468 10.2548 22.6321 10.358 22.6203C10.1693 22.6439 9.98062 22.6439 9.79195 22.6203C9.89513 22.635 10.0013 22.6498 10.1044 22.6616C9.93345 22.635 9.77131 22.5908 9.61212 22.526C9.70646 22.5643 9.8008 22.6056 9.89513 22.6439C9.74183 22.5761 9.59738 22.4935 9.46472 22.3933C9.54432 22.4552 9.62391 22.5171 9.70351 22.579C9.562 22.4699 9.43523 22.3432 9.32616 22.2017C9.38806 22.2813 9.44998 22.3609 9.51188 22.4405C9.41165 22.3049 9.32911 22.1634 9.2613 22.0101C9.29963 22.1044 9.3409 22.1987 9.37922 22.2931C9.31437 22.1339 9.2672 21.9717 9.24362 21.8007C9.25836 21.9039 9.2731 22.0101 9.28489 22.1132C9.2613 21.9246 9.2613 21.7359 9.28489 21.5472C9.27015 21.6504 9.25541 21.7565 9.24362 21.8597C9.27015 21.6887 9.31437 21.5266 9.37922 21.3674C9.3409 21.4617 9.29962 21.5561 9.2613 21.6504C9.32911 21.4971 9.41166 21.3526 9.51188 21.22C9.44998 21.2996 9.38806 21.3792 9.32616 21.4588C9.43523 21.3173 9.562 21.1905 9.70351 21.0814C9.62391 21.1433 9.54432 21.2052 9.46472 21.2671C9.60033 21.1669 9.74183 21.0844 9.89513 21.0166C9.8008 21.0549 9.70646 21.0962 9.61212 21.1345C9.77131 21.0696 9.93345 21.0225 10.1044 20.9989C10.0013 21.0136 9.89513 21.0284 9.79195 21.0401C9.98062 21.0166 10.1693 21.0166 10.358 21.0401C10.2548 21.0254 10.1487 21.0107 10.0455 20.9989C10.2165 21.0254 10.3786 21.0696 10.5378 21.1345C10.4435 21.0962 10.3491 21.0549 10.2548 21.0166C10.4081 21.0844 10.5525 21.1669 10.6852 21.2671C10.6056 21.2052 10.526 21.1433 10.4464 21.0814C10.5879 21.1905 10.7147 21.3173 10.8238 21.4588C10.7619 21.3792 10.6999 21.2996 10.638 21.22C10.7383 21.3556 10.8208 21.4971 10.8886 21.6504C10.8503 21.5561 10.809 21.4617 10.7707 21.3674C10.8356 21.5266 10.8827 21.6887 10.9063 21.8597C10.8916 21.7565 10.8768 21.6504 10.865 21.5472C10.8768 21.6415 10.8827 21.7359 10.8857 21.8302C10.8886 22.1339 11.0154 22.4493 11.2306 22.6645C11.434 22.868 11.7701 23.0242 12.0649 23.0095C12.6988 22.98 13.25 22.4906 13.2441 21.8302C13.2382 21.2112 13.0614 20.5626 12.6988 20.0585C12.4865 19.7666 12.2772 19.5367 11.9942 19.3185C11.7112 19.1003 11.4282 18.9559 11.0891 18.8291C10.7943 18.7171 10.4671 18.6729 10.1546 18.6611C9.83916 18.6493 9.50605 18.6935 9.20535 18.779C8.64229 18.9411 8.07918 19.2743 7.70183 19.7282C7.43061 20.0555 7.25962 20.3503 7.10044 20.7394C6.97957 21.0342 6.93535 21.3497 6.90881 21.6651C6.8587 22.2725 7.03558 22.9387 7.35102 23.4576C7.66056 23.9646 8.1234 24.4186 8.66587 24.6692C9.05796 24.8491 9.38224 24.9345 9.80973 24.9847C10.1311 25.023 10.4524 24.9847 10.7678 24.9228C12.2094 24.6427 13.2294 23.263 13.2442 21.8303C13.2501 21.2141 12.6988 20.6216 12.065 20.651C11.4193 20.6805 10.8916 21.1699 10.8858 21.8303L10.8857 21.8302Z" fill="#1D3557"/>
<path d="M21.6747 21.8302C21.6747 21.9246 21.6659 22.0189 21.6541 22.1132C21.6688 22.0101 21.6836 21.9039 21.6954 21.8007C21.6688 21.9717 21.6246 22.1339 21.5598 22.2931C21.5981 22.1987 21.6394 22.1044 21.6777 22.0101C21.6099 22.1634 21.5273 22.3078 21.4271 22.4405C21.489 22.3609 21.5509 22.2813 21.6128 22.2017C21.5038 22.3432 21.377 22.4699 21.2355 22.579C21.3151 22.5171 21.3947 22.4552 21.4743 22.3933C21.3387 22.4935 21.1972 22.5761 21.0439 22.6439C21.1382 22.6056 21.2325 22.5643 21.3269 22.526C21.1677 22.5908 21.0055 22.638 20.8345 22.6616C20.9377 22.6468 21.0439 22.6321 21.147 22.6203C20.9584 22.6439 20.7697 22.6439 20.581 22.6203C20.6842 22.635 20.7903 22.6498 20.8935 22.6616C20.7225 22.635 20.5604 22.5908 20.4012 22.526C20.4955 22.5643 20.5899 22.6056 20.6842 22.6439C20.5309 22.5761 20.3864 22.4935 20.2538 22.3933C20.3334 22.4552 20.413 22.5171 20.4926 22.579C20.3511 22.4699 20.2243 22.3432 20.1152 22.2017C20.1771 22.2813 20.239 22.3609 20.3009 22.4405C20.2007 22.3049 20.1182 22.1634 20.0504 22.0101C20.0887 22.1044 20.13 22.1987 20.1683 22.2931C20.1034 22.1339 20.0563 21.9717 20.0327 21.8007C20.0474 21.9039 20.0622 22.0101 20.074 22.1132C20.0504 21.9246 20.0504 21.7359 20.074 21.5472C20.0592 21.6504 20.0445 21.7565 20.0327 21.8597C20.0592 21.6887 20.1034 21.5266 20.1683 21.3674C20.13 21.4617 20.0887 21.5561 20.0504 21.6504C20.1182 21.4971 20.2007 21.3526 20.3009 21.22C20.239 21.2996 20.1771 21.3792 20.1152 21.4588C20.2243 21.3173 20.3511 21.1905 20.4926 21.0814C20.413 21.1433 20.3334 21.2052 20.2538 21.2671C20.3894 21.1669 20.5309 21.0844 20.6842 21.0166C20.5899 21.0549 20.4955 21.0962 20.4012 21.1345C20.5604 21.0696 20.7225 21.0225 20.8935 20.9989C20.7903 21.0136 20.6842 21.0284 20.581 21.0401C20.7697 21.0166 20.9584 21.0166 21.147 21.0401C21.0439 21.0254 20.9377 21.0107 20.8345 20.9989C21.0055 21.0254 21.1677 21.0696 21.3269 21.1345C21.2325 21.0962 21.1382 21.0549 21.0439 21.0166C21.1972 21.0844 21.3416 21.1669 21.4743 21.2671C21.3947 21.2052 21.3151 21.1433 21.2355 21.0814C21.377 21.1905 21.5038 21.3173 21.6128 21.4588C21.5509 21.3792 21.489 21.2996 21.4271 21.22C21.5273 21.3556 21.6099 21.4971 21.6777 21.6504C21.6394 21.5561 21.5981 21.4617 21.5598 21.3674C21.6246 21.5266 21.6718 21.6887 21.6954 21.8597C21.6806 21.7565 21.6659 21.6504 21.6541 21.5472C21.6659 21.6415 21.6747 21.7359 21.6747 21.8302C21.6777 22.1339 21.8044 22.4493 22.0197 22.6645C22.2231 22.868 22.5592 23.0242 22.854 23.0095C23.4878 22.98 24.0391 22.4906 24.0332 21.8302C24.0273 21.2112 23.8504 20.5626 23.4878 20.0585C23.2756 19.7666 23.0662 19.5367 22.7832 19.3185C22.5002 19.1003 22.2172 18.9559 21.8782 18.8291C21.5834 18.7171 21.2562 18.6729 20.9437 18.6611C20.6282 18.6493 20.2951 18.6935 19.9944 18.779C19.4314 18.9411 18.8682 19.2743 18.4909 19.7282C18.2197 20.0555 18.0487 20.3503 17.8895 20.7394C17.7686 21.0342 17.7244 21.3497 17.6979 21.6651C17.6478 22.2725 17.8246 22.9387 18.1401 23.4576C18.4496 23.9646 18.9125 24.4186 19.4549 24.6692C19.847 24.8491 20.1713 24.9345 20.5988 24.9847C20.9201 25.023 21.2415 24.9847 21.5569 24.9228C22.9985 24.6427 24.0185 23.263 24.0333 21.8303C24.0392 21.2141 23.4879 20.6216 22.8541 20.651C22.2084 20.6805 21.6807 21.1699 21.6748 21.8303L21.6747 21.8302Z" fill="#1D3557"/>
</svg>
