<svg width="26" height="23" viewBox="0 0 26 23" fill="none" xmlns="http://www.w3.org/2000/svg">
<path d="M21.7212 20.4445H14.0546V4.73434L22.7638 6.36732C22.8413 6.38195 22.9201 6.38923 22.9989 6.38904C23.3175 6.38917 23.6246 6.27032 23.86 6.05578C24.0955 5.84125 24.2423 5.54651 24.2717 5.22933C24.3012 4.91216 24.2111 4.59544 24.0191 4.34124C23.8271 4.08705 23.5472 3.91372 23.234 3.85524L14.0546 2.13408V1.27798C14.0546 0.939097 13.92 0.614092 13.6803 0.374465C13.4407 0.134837 13.1157 0.000215708 12.7768 0.000215708C12.4379 0.000215708 12.1129 0.134837 11.8733 0.374465C11.6337 0.614092 11.499 0.939097 11.499 1.27798V1.66131L2.79107 0.0219377C2.45795 -0.0405865 2.11363 0.0317829 1.83387 0.223126C1.5541 0.414468 1.36181 0.70911 1.29928 1.04223C1.23676 1.37536 1.30913 1.71967 1.50047 1.99944C1.69181 2.2792 1.98645 2.4715 2.31958 2.53403L11.499 4.25518V20.4445H3.83245C3.49357 20.4445 3.16856 20.5791 2.92894 20.8187C2.68931 21.0583 2.55469 21.3834 2.55469 21.7222C2.55469 22.0611 2.68931 22.3861 2.92894 22.6258C3.16856 22.8654 3.49357 23 3.83245 23H21.7212C22.0601 23 22.3851 22.8654 22.6247 22.6258C22.8643 22.3861 22.9989 22.0611 22.9989 21.7222C22.9989 21.3834 22.8643 21.0583 22.6247 20.8187C22.3851 20.5791 22.0601 20.4445 21.7212 20.4445Z" fill="#1D3557"/>
<path d="M7.66659 10.2224C7.66659 9.88348 7.53197 9.55847 7.29235 9.31884C7.05272 9.07922 6.72771 8.9446 6.38883 8.9446H1.27777C0.938881 8.9446 0.613877 9.07922 0.374249 9.31884C0.134621 9.55847 0 9.88348 0 10.2224C0 10.5612 0.134621 10.8863 0.374249 11.1259C0.613877 11.3655 0.938881 11.5001 1.27777 11.5001H6.38883C6.72771 11.5001 7.05272 11.3655 7.29235 11.1259C7.53197 10.8863 7.66659 10.5612 7.66659 10.2224Z" fill="#1D3557"/>
<path d="M24.2775 12.7779H19.1664C18.8276 12.7779 18.5025 12.9125 18.2629 13.1521C18.0233 13.3918 17.8887 13.7168 17.8887 14.0557C17.8887 14.3945 18.0233 14.7195 18.2629 14.9592C18.5025 15.1988 18.8276 15.3334 19.1664 15.3334H24.2775C24.6164 15.3334 24.9414 15.1988 25.181 14.9592C25.4206 14.7195 25.5553 14.3945 25.5553 14.0557C25.5553 13.7168 25.4206 13.3918 25.181 13.1521C24.9414 12.9125 24.6164 12.7779 24.2775 12.7779Z" fill="#1D3557"/>
</svg>
