<svg width="17" height="17" viewBox="0 0 17 17" fill="none" xmlns="http://www.w3.org/2000/svg">
<path d="M16.6173 0.382739C16.1326 -0.101918 15.347 -0.101919 14.8623 0.382739L8.5 6.74507L2.13767 0.382739C1.65301 -0.101919 0.86736 -0.101918 0.382703 0.382739C-0.101954 0.867396 -0.101954 1.65305 0.382703 2.13771L6.74503 8.50004L0.382703 14.8624C-0.101954 15.347 -0.101954 16.1327 0.382704 16.6173C0.867361 17.102 1.65301 17.102 2.13767 16.6173L8.5 10.255L14.8623 16.6173C15.347 17.102 16.1326 17.102 16.6173 16.6173C17.102 16.1327 17.102 15.347 16.6173 14.8624L10.255 8.50004L16.6173 2.13771C17.102 1.65305 17.102 0.867396 16.6173 0.382739Z" fill="white"/>
</svg>
