<svg width="23" height="23" viewBox="0 0 23 23" fill="none" xmlns="http://www.w3.org/2000/svg">
<path d="M11.5001 0.0204086C10.8147 0.0204086 10.2591 0.575949 10.2591 1.26136V10.2591H1.26146C0.576048 10.2591 0.0205078 10.8146 0.0205078 11.5C0.0205078 12.1854 0.576048 12.7409 1.26146 12.7409H10.2591V21.7386C10.2591 22.4241 10.8147 22.9796 11.5001 22.9796C12.1855 22.9796 12.7411 22.4241 12.7411 21.7386V12.7409H21.7387C22.4241 12.7409 22.9797 12.1854 22.9797 11.5C22.9797 10.8146 22.4241 10.2591 21.7387 10.2591H12.7411V1.26136C12.7411 0.575949 12.1855 0.0204086 11.5001 0.0204086Z" fill="white"/>
</svg>
