<svg width="26" height="25" viewBox="0 0 26 25" fill="none" xmlns="http://www.w3.org/2000/svg">
<path d="M25.7089 9.29225C25.5544 8.82772 25.0899 8.36319 24.4698 8.36319L17.1908 7.43411L14.0936 0.775134C13.9391 0.310598 13.319 0.000549316 12.8545 0.000549316C12.2354 0.000549316 11.7698 0.310598 11.6153 0.775134L8.51816 7.43411L1.23913 8.2087C0.464544 8.2087 0 8.82772 0 9.60231C0 10.0668 0.154496 10.3769 0.464549 10.6869L5.88565 15.6434L4.49204 22.7681C4.33755 23.0782 4.33755 23.2327 4.49204 23.5427C4.64652 24.1617 5.26663 24.6274 5.88565 24.6274C6.1957 24.6274 6.35018 24.6273 6.50467 24.4729C6.81472 24.3184 11.1511 21.8402 12.8547 20.9111L19.2048 24.6283C19.6693 24.9383 20.2894 24.9383 20.754 24.4738C21.2185 24.1638 21.373 23.5447 21.373 23.0802L19.8238 15.8012L25.2449 10.8447C25.7095 10.3769 25.8639 9.75682 25.7095 9.29229L25.7089 9.29225ZM17.3463 14.093C17.0363 14.4031 16.8818 14.8676 16.8818 15.3322L17.9664 20.2886L13.4757 17.8104C13.0111 17.5004 12.5466 17.5004 12.0821 17.8104C10.2239 18.8951 8.67484 19.6686 7.59129 20.2886L8.67593 15.3322C8.83042 14.8676 8.67594 14.4031 8.2114 14.093L4.49195 10.6858L9.60277 10.0668C10.0673 10.0668 10.5318 9.75676 10.6874 9.29223L12.8556 4.64577L15.0237 9.29223C15.1782 9.75676 15.6427 10.0668 16.1084 10.0668L21.2192 10.6858L17.3463 14.093Z" fill="#FF9770"/>
</svg>
