<svg width="26" height="25" viewBox="0 0 26 25" fill="none" xmlns="http://www.w3.org/2000/svg">
<path d="M24.5304 8.20815L17.2513 7.43356L14.1542 0.774585C13.9997 0.310049 13.3796 0 12.915 0C12.4505 0 11.8304 0.310049 11.6759 0.774585L8.57873 7.43356L1.2997 8.20815C0.680683 8.20815 0.370633 8.67269 0.0605835 9.13722C-0.0938994 9.60176 0.0605839 10.2219 0.370634 10.5308L5.79174 15.4873L4.24257 22.7663C4.08808 23.2309 4.39705 23.851 4.86159 24.1599C5.17164 24.4689 5.48169 24.6245 5.63617 24.6245C5.94622 24.6245 6.10071 24.6245 6.25519 24.47L12.6053 20.7528L18.9553 24.47C19.4199 24.7801 20.04 24.7801 20.5045 24.3155C20.969 24.0055 21.1235 23.3864 21.1235 22.9219L19.5743 15.6429L24.9954 10.6864C25.46 10.3764 25.6145 9.75732 25.3055 9.29279C25.46 8.67269 24.9949 8.36264 24.5304 8.20815Z" fill="#FF9770"/>
</svg>
