<svg width="28" height="24" viewBox="0 0 28 24" fill="none" xmlns="http://www.w3.org/2000/svg">
<path d="M20.5252 0C18.6155 0 16.7068 0.701219 15.2438 2.11956L13.9886 3.32753L12.7571 2.13147C9.83111 -0.705483 5.12036 -0.705483 2.1945 2.13147C-0.7315 4.96842 -0.7315 9.64371 2.1945 12.4809C5.86908 16.0439 9.54434 19.5994 13.2193 23.162V23.1617C13.431 23.3652 13.7133 23.4786 14.0067 23.4786C14.3003 23.4786 14.5826 23.3652 14.7944 23.1617L25.807 12.4692C28.729 9.63039 28.733 4.95692 25.807 2.1197C24.344 0.70109 22.4356 0.000141452 20.5256 0.000141452L20.5252 0ZM20.5252 2.26179C21.8627 2.26179 23.2064 2.75977 24.2314 3.75389C26.2818 5.74184 26.2807 8.84437 24.2314 10.8351L14.0004 20.7698C10.5902 17.4632 7.1797 14.1531 3.76935 10.8466C1.71901 8.85865 1.71901 5.75341 3.76935 3.76539C5.81969 1.77737 9.11994 1.77744 11.1706 3.76539L13.2075 5.73115H13.2072C13.4189 5.93441 13.7012 6.04806 13.9947 6.04806C14.2883 6.04806 14.5706 5.93441 14.7823 5.73115L16.8308 3.75348C17.8561 2.75941 19.188 2.26139 20.5255 2.26139L20.5252 2.26179Z" fill="#FDFDFD"/>
</svg>
