<svg width="30" height="25" viewBox="0 0 30 25" fill="none" xmlns="http://www.w3.org/2000/svg">
<path d="M21.8552 0C19.8217 0 17.7894 0.746657 16.2316 2.2569L14.895 3.54315L13.5838 2.26958C10.4682 -0.751197 5.45216 -0.751197 2.3367 2.26958C-0.7789 5.29037 -0.7789 10.2686 2.3367 13.2897C6.24939 17.0836 10.1628 20.8694 14.0759 24.6628V24.6625C14.3013 24.8793 14.6019 25 14.9143 25C15.227 25 15.5276 24.8793 15.753 24.6625L27.4792 13.2772C30.5907 10.2544 30.5948 5.27813 27.4792 2.25706C25.9214 0.74652 23.8894 0.000150618 21.8556 0.000150618L21.8552 0ZM21.8552 2.40835C23.2794 2.40835 24.7102 2.9386 25.8016 3.99714C27.9848 6.1139 27.9837 9.41748 25.8016 11.5372L14.9076 22.1156C11.2764 18.5947 7.64494 15.0702 4.0136 11.5495C1.8304 9.43268 1.8304 6.12622 4.0136 4.00938C6.1968 1.89255 9.71091 1.89262 11.8945 4.00938L14.0633 6.10252H14.063C14.2885 6.31895 14.5891 6.43997 14.9015 6.43997C15.2142 6.43997 15.5148 6.31895 15.7402 6.10252L17.9214 3.9967C19.0131 2.93821 20.4314 2.40792 21.8555 2.40792L21.8552 2.40835Z" fill="#1D3557"/>
</svg>
