<svg width="28" height="23" viewBox="0 0 28 23" fill="none" xmlns="http://www.w3.org/2000/svg">
<path d="M20.232 0C18.3495 0 16.4682 0.686925 15.0261 2.07635L13.7887 3.2597L12.5749 2.08802C9.69067 -0.691101 5.04721 -0.691101 2.16315 2.08802C-0.72105 4.86714 -0.72105 9.44712 2.16315 12.2265C5.78524 15.7169 9.40799 19.1998 13.0304 22.6898V22.6895C13.2391 22.8889 13.5174 23 13.8066 23C14.0961 23 14.3743 22.8889 14.583 22.6895L25.4383 12.215C28.3186 9.43407 28.3225 4.85588 25.4383 2.07649C23.9962 0.686798 22.1151 0.000138568 20.2324 0.000138568L20.232 0ZM20.232 2.21569C21.5503 2.21569 22.8749 2.70351 23.8853 3.67737C25.9063 5.62479 25.9053 8.66408 23.8853 10.6142L13.8004 20.3464C10.4389 17.1072 7.07713 13.8646 3.7155 10.6255C1.69445 8.67807 1.69445 5.63613 3.7155 3.68863C5.73655 1.74114 8.98966 1.74121 11.011 3.68863L13.0188 5.61432H13.0186C13.2272 5.81343 13.5055 5.92478 13.7947 5.92478C14.0842 5.92478 14.3624 5.81343 14.5712 5.61432L16.5904 3.67697C17.601 2.70316 18.9139 2.21529 20.2322 2.21529L20.232 2.21569Z" fill="#ACB5C2"/>
</svg>
