<svg width="22" height="25" viewBox="0 0 22 25" fill="none" xmlns="http://www.w3.org/2000/svg">
<path d="M14.1673 5.01778e-06C13.9464 5.01778e-06 13.7345 0.087808 13.5782 0.244061C13.422 0.400314 13.334 0.612378 13.334 0.833366V19.1692C13.3338 19.3333 13.3818 19.4938 13.4724 19.6305L16.8068 24.6283C16.9612 24.8605 17.2216 25 17.5004 25C17.7793 25 18.0397 24.8605 18.1943 24.6283L21.5285 19.6305C21.6191 19.4938 21.6672 19.3333 21.6669 19.1692V0.833366C21.6669 0.612192 21.5789 0.400128 21.4224 0.24387C21.266 0.087427 21.0539 -0.000185426 20.8327 2.94665e-07L14.1673 5.01778e-06ZM15.0017 1.66673H19.9994V3.33421H15.0017V1.66673ZM15.0017 5.00094H19.9994V18.3357H15.0017V5.00094ZM15.7243 19.9991H19.2758L17.4984 22.666L15.7243 19.9991Z" fill="#1D3557"/>
<path d="M0.833489 3.33405C0.535674 3.33405 0.260565 3.4929 0.11175 3.75091C-0.0372501 4.00873 -0.0372501 4.32645 0.11175 4.58446C0.260565 4.84229 0.535684 5.00114 0.833489 5.00114H10.8334C11.1312 5.00114 11.4063 4.84229 11.5553 4.58446C11.7041 4.32645 11.7041 4.00873 11.5553 3.75091C11.4063 3.4929 11.1312 3.33405 10.8334 3.33405H0.833489Z" fill="#1D3557"/>
<path d="M4.08217 6.66837C3.79123 6.69162 3.53377 6.86536 3.40338 7.12634C3.27298 7.38733 3.28842 7.6976 3.44412 7.94428C3.6 8.19094 3.87345 8.33807 4.16514 8.33231H10.8339C11.0631 8.3457 11.2875 8.26404 11.4545 8.10667C11.6213 7.94911 11.716 7.72979 11.716 7.50046C11.716 7.27091 11.6213 7.05159 11.4545 6.89405C11.2874 6.73668 11.0631 6.65502 10.8339 6.66841H4.16514C4.13761 6.66693 4.10989 6.66693 4.08218 6.66841L4.08217 6.66837Z" fill="#1D3557"/>
<path d="M4.16454 9.99939C3.86673 9.99939 3.59162 10.1582 3.4428 10.4161C3.2938 10.6741 3.2938 10.9918 3.4428 11.2496C3.59162 11.5076 3.86674 11.6665 4.16454 11.6665H10.8333C11.1312 11.6665 11.4063 11.5076 11.5553 11.2496C11.7041 10.9918 11.7041 10.6741 11.5553 10.4161C11.4063 10.1582 11.1312 9.99939 10.8333 9.99939H4.16454Z" fill="#1D3557"/>
</svg>
